<?xml version="1.0" standalone="no"?>
<!DOCTYPE svg PUBLIC "-//W3C//DTD SVG 20010904//EN"
 "http://www.w3.org/TR/2001/REC-SVG-20010904/DTD/svg10.dtd">
<svg version="1.0" xmlns="http://www.w3.org/2000/svg"
 width="128.000000pt" height="128.000000pt" viewBox="0 0 128.000000 128.000000"
 preserveAspectRatio="xMidYMid meet">
<metadata>
Created by potrace 1.16, written by Peter Selinger 2001-2019
</metadata>
<g transform="translate(0.000000,128.000000) scale(0.100000,-0.100000)"
fill="#000000" stroke="none">
<path d="M477 1264 c-215 -52 -411 -249 -462 -465 -19 -82 -19 -236 0 -318 52
-219 247 -414 466 -466 82 -19 236 -19 318 0 166 40 329 167 409 321 52 102
72 183 72 304 0 121 -20 202 -72 304 -80 154 -243 281 -409 321 -80 18 -244
18 -322 -1z m407 -246 c53 -16 118 -81 134 -134 16 -56 16 -432 0 -488 -16
-53 -81 -118 -134 -134 -56 -16 -432 -16 -488 0 -53 16 -118 81 -134 134 -16
56 -16 432 0 488 15 50 80 118 128 133 50 16 441 16 494 1z"/>
<path d="M392 950 c-33 -15 -47 -29 -62 -62 -17 -38 -20 -66 -20 -248 0 -182
3 -210 20 -248 15 -33 29 -47 62 -62 38 -17 66 -20 248 -20 182 0 210 3 248
20 33 15 47 29 62 62 17 38 20 66 20 248 0 182 -3 210 -20 248 -15 33 -29 47
-62 62 -38 17 -66 20 -248 20 -182 0 -210 -3 -248 -20z m316 -126 c74 -31 132
-111 132 -184 0 -98 -102 -200 -200 -200 -97 0 -199 101 -200 198 0 72 53 150
125 183 49 23 94 24 143 3z"/>
<path d="M581 763 c-124 -65 -93 -242 45 -259 73 -9 141 46 150 122 13 104
-103 186 -195 137z"/>
</g>
</svg>
