<?xml version="1.0" standalone="no"?>
<!DOCTYPE svg PUBLIC "-//W3C//DTD SVG 20010904//EN"
 "http://www.w3.org/TR/2001/REC-SVG-20010904/DTD/svg10.dtd">
<svg version="1.0" xmlns="http://www.w3.org/2000/svg"
 width="128.000000pt" height="128.000000pt" viewBox="0 0 128.000000 128.000000"
 preserveAspectRatio="xMidYMid meet">
<metadata>
Created by potrace 1.16, written by Peter Selinger 2001-2019
</metadata>
<g transform="translate(0.000000,128.000000) scale(0.100000,-0.100000)"
fill="#000000" stroke="none">
<path d="M482 1265 c-30 -7 -92 -32 -140 -55 -123 -61 -214 -154 -275 -281
-25 -52 -50 -118 -56 -147 -16 -75 -13 -226 4 -301 38 -161 167 -328 311 -404
40 -20 75 -37 78 -37 3 0 6 38 6 84 0 63 10 126 39 251 36 152 39 171 28 220
-25 120 60 230 143 185 36 -19 42 -68 19 -155 -44 -167 -44 -163 -26 -200 21
-44 73 -62 134 -46 157 42 218 337 98 470 -99 109 -304 113 -413 8 -86 -82
-111 -213 -62 -313 21 -42 24 -56 16 -92 -5 -23 -12 -42 -17 -42 -18 0 -67 53
-94 102 -27 48 -30 61 -30 148 0 87 3 101 32 161 58 117 157 186 301 210 179
29 349 -51 429 -203 26 -49 28 -62 28 -163 0 -103 -2 -114 -31 -176 -40 -83
-93 -143 -157 -175 -91 -47 -182 -42 -248 13 -16 14 -31 24 -33 22 -1 -2 -15
-49 -30 -104 -15 -55 -41 -123 -57 -151 -16 -28 -29 -56 -29 -62 0 -28 226
-43 332 -21 29 6 95 31 147 56 75 36 108 59 166 118 59 58 82 91 118 166 54
111 67 169 67 289 0 120 -13 178 -67 289 -63 131 -153 221 -284 284 -52 25
-118 50 -147 56 -70 15 -234 13 -300 -4z"/>
</g>
</svg>
