<?xml version="1.0" standalone="no"?>
<!DOCTYPE svg PUBLIC "-//W3C//DTD SVG 20010904//EN"
 "http://www.w3.org/TR/2001/REC-SVG-20010904/DTD/svg10.dtd">
<svg version="1.0" xmlns="http://www.w3.org/2000/svg"
 width="128.000000pt" height="128.000000pt" viewBox="0 0 128.000000 128.000000"
 preserveAspectRatio="xMidYMid meet">
<metadata>
Created by potrace 1.16, written by Peter Selinger 2001-2019
</metadata>
<g transform="translate(0.000000,128.000000) scale(0.100000,-0.100000)"
fill="#000000" stroke="none">
<path d="M477 1264 c-215 -52 -411 -249 -462 -465 -19 -82 -19 -236 0 -318 52
-219 247 -414 466 -466 82 -19 236 -19 318 0 166 40 329 167 409 321 52 102
72 183 72 304 0 121 -20 202 -72 304 -80 154 -243 281 -409 321 -80 18 -244
18 -322 -1z m414 -386 c33 -18 44 -20 74 -11 42 13 43 8 8 -30 l-28 -30 33 6
c38 8 42 -6 8 -28 -19 -13 -24 -27 -29 -78 -17 -177 -140 -334 -301 -382 -74
-23 -190 -21 -261 4 -32 11 -60 22 -62 25 -2 2 15 6 39 10 49 7 148 50 148 64
0 5 -13 12 -29 15 -30 6 -101 61 -101 78 0 5 11 9 24 9 14 0 28 5 31 10 3 6 0
10 -9 10 -21 0 -74 47 -91 81 -23 44 -20 51 22 43 l38 -7 -32 36 c-36 41 -48
83 -38 134 l6 34 45 -41 c58 -53 157 -100 227 -107 55 -6 55 -5 50 20 -7 37
32 112 70 136 43 28 108 27 158 -1z"/>
</g>
</svg>
